<?xml version="1.0" encoding="UTF-8"?>
<svg width="512" height="512" viewBox="0 0 512 512" xmlns="http://www.w3.org/2000/svg">
  <!-- 背景圆形 -->
  <circle cx="256" cy="256" r="240" fill="#4A90E2" stroke="#2C5AA0" stroke-width="8"/>
  
  <!-- 盾牌形状 -->
  <path d="M256 80 L320 120 L320 200 C320 280 256 320 256 320 C256 320 192 280 192 200 L192 120 Z" 
        fill="#FFFFFF" stroke="#2C5AA0" stroke-width="4"/>
  
  <!-- 锁图标 -->
  <rect x="220" y="240" width="72" height="48" rx="8" fill="#2C5AA0"/>
  <circle cx="256" cy="220" r="12" fill="#2C5AA0"/>
  
  <!-- 浏览器图标 -->
  <rect x="180" y="160" width="152" height="100" rx="8" fill="#FFFFFF" stroke="#2C5AA0" stroke-width="2"/>
  <rect x="180" y="160" width="152" height="20" rx="8" fill="#E0E0E0"/>
  <circle cx="190" cy="170" r="4" fill="#FF5F56"/>
  <circle cx="205" cy="170" r="4" fill="#FFBD2E"/>
  <circle cx="220" cy="170" r="4" fill="#27C93F"/>
  
  <!-- 警告标志 -->
  <path d="M256 280 L240 300 L272 300 Z" fill="#FF5F56"/>
  <circle cx="256" cy="290" r="3" fill="#FF5F56"/>
</svg> 